<svg xmlns="http://www.w3.org/2000/svg" viewBox="0 0 480 80" font-family="system-ui, -apple-system, sans-serif">
  <defs>
    <marker id="a" markerWidth="4" markerHeight="3" refX="3" refY="1.5" orient="auto">
      <path d="M0 0 L4 1.5 L0 3 Z" fill="#64748b"/>
    </marker>
  </defs>
  <!-- Tier 1: Yahoo → Producer → Kafka → Consumer → Spark -->
  <rect x="0" y="8" width="52" height="28" rx="6" fill="#2563eb"/>
  <text x="26" y="26" font-size="7" fill="white" text-anchor="middle">Yahoo</text>

  <rect x="68" y="8" width="52" height="28" rx="6" fill="#0d9488"/>
  <text x="94" y="26" font-size="7" fill="white" text-anchor="middle">Producer</text>

  <rect x="136" y="8" width="52" height="28" rx="6" fill="#27272a" stroke="#52525b" stroke-width="1"/>
  <text x="162" y="26" font-size="7" fill="#e4e4e7" text-anchor="middle">Kafka</text>

  <rect x="204" y="8" width="52" height="28" rx="6" fill="#0d9488"/>
  <text x="230" y="26" font-size="7" fill="white" text-anchor="middle">Consumer</text>

  <rect x="272" y="8" width="52" height="28" rx="6" fill="#ea580c"/>
  <text x="298" y="26" font-size="7" fill="white" text-anchor="middle">Spark</text>

  <!-- Tier 2: InfluxDB, PostgreSQL → Grafana -->
  <rect x="340" y="48" width="52" height="28" rx="6" fill="#7c3aed"/>
  <text x="366" y="66" font-size="7" fill="white" text-anchor="middle">InfluxDB</text>

  <rect x="408" y="48" width="52" height="28" rx="6" fill="#2563eb"/>
  <text x="434" y="66" font-size="7" fill="white" text-anchor="middle">PostgreSQL</text>

  <rect x="340" y="8" width="52" height="28" rx="6" fill="#ea580c"/>
  <text x="366" y="26" font-size="7" fill="white" text-anchor="middle">Grafana</text>

  <!-- Arrows: straight, no overlap -->
  <path d="M52 22 L68 22" stroke="#64748b" stroke-width="1.2" fill="none" marker-end="url(#a)"/>
  <path d="M120 22 L136 22" stroke="#64748b" stroke-width="1.2" fill="none" marker-end="url(#a)"/>
  <path d="M188 22 L204 22" stroke="#64748b" stroke-width="1.2" fill="none" marker-end="url(#a)"/>
  <path d="M256 22 L272 22" stroke="#64748b" stroke-width="1.2" fill="none" marker-end="url(#a)"/>
  <path d="M298 36 L366 48" stroke="#64748b" stroke-width="1.2" fill="none" marker-end="url(#a)"/>
  <path d="M298 36 L434 48" stroke="#64748b" stroke-width="1.2" fill="none" marker-end="url(#a)"/>
  <path d="M366 76 L366 36" stroke="#64748b" stroke-width="1.2" fill="none" marker-end="url(#a)"/>
  <path d="M434 76 L366 36" stroke="#64748b" stroke-width="1.2" fill="none" marker-end="url(#a)"/>
</svg>
